<svg xmlns="http://www.w3.org/2000/svg" viewBox="0 0 32 32"><path d="M12 3v2c1.496 0 2.298.52 2.688 1.094-4.284.58-7.665 3.948-8.407 8.218C5.025 14.67 4 15.636 4 17c0 1.365 1.024 2.33 2.28 2.688C7.098 24.387 11.1 28 16 28s8.903-3.61 9.72-8.313C26.975 19.33 28 18.366 28 17c0-1.32-.963-2.26-2.156-2.656-.75-3.958-3.718-7.142-7.563-8.063.132-.17.267-.28.72-.28V4c-1.092 0-1.954.546-2.406 1.188-.03.04-.036.084-.063.125C15.79 4.006 14.203 3 12 3zm4 5c4.093 0 7.464 3.106 8 7.125l.125.875H25c.555 0 1 .445 1 1 0 .555-.445 1-1 1h-1l-.094.875C23.46 22.88 20.093 26 16 26s-7.46-3.12-7.906-7.125L8 18H7c-.555 0-1-.445-1-1 0-.555.445-1 1-1h1l.094-.875C8.54 11.12 11.907 8 16 8zm-3.5 8c-.828 0-1.5.672-1.5 1.5s.672 1.5 1.5 1.5 1.5-.672 1.5-1.5-.672-1.5-1.5-1.5zm7 0c-.828 0-1.5.672-1.5 1.5s.672 1.5 1.5 1.5 1.5-.672 1.5-1.5-.672-1.5-1.5-1.5z"/></svg>