<svg xmlns="http://www.w3.org/2000/svg" viewBox="0 0 32 32"><path d="M27.938 4.75L3.155 9H15l11.313-1.938L26.655 9h2.032l-.75-4.25zM2 10v16h28V10H2zm4.938 2h18.125c-.034.163-.063.327-.063.5 0 1.38 1.12 2.5 2.5 2.5.173 0 .337-.03.5-.063v6.126c-.163-.034-.327-.063-.5-.063-1.38 0-2.5 1.12-2.5 2.5 0 .173.03.337.063.5H6.938c.033-.163.062-.327.062-.5C7 22.12 5.88 21 4.5 21c-.173 0-.337.03-.5.063v-6.125c.163.033.327.062.5.062C5.88 15 7 13.88 7 12.5c0-.173-.03-.337-.063-.5zM16 13c-2.75 0-5 2.25-5 5s2.25 5 5 5 5-2.25 5-5-2.25-5-5-5zm0 2c1.67 0 3 1.33 3 3s-1.33 3-3 3-3-1.33-3-3 1.33-3 3-3z"/></svg>