<svg xmlns="http://www.w3.org/2000/svg" viewBox="0 0 32 32"><path d="M6 6c-2.197 0-4 1.803-4 4s1.803 4 4 4c.957 0 1.81-.37 2.5-.938l5.22 2.97-5.158 2.937C7.864 18.374 6.982 18 6 18c-2.197 0-4 1.803-4 4s1.803 4 4 4 4-1.803 4-4c0-.494-.115-.97-.28-1.406L30 9h-4l-10.22 5.844-6.06-3.438c.072-.194.144-.387.186-.594.054-.26.094-.537.094-.812 0-2.197-1.803-4-4-4zm0 2c1.116 0 2 .884 2 2s-.884 2-2 2-2-.884-2-2c0-.14.005-.275.03-.406C4.217 8.677 5.024 8 6 8zm13.094 8.813l-2 1.093L26 23h4l-10.906-6.188zM6 20c1.116 0 2 .884 2 2s-.884 2-2 2-2-.884-2-2c0-.14.005-.275.03-.406C4.217 20.677 5.024 20 6 20z"/></svg>