<svg xmlns="http://www.w3.org/2000/svg" viewBox="0 0 32 32" enable-background="new 0 0 32 32"><path d="M 26.59375 3.96875 L 23.5 7.0625 L 21.21875 4.78125 L 19.78125 6.21875 L 22.0625 8.5 L 18.75 11.8125 C 17.958731 11.286452 17.015858 11 16 11 C 14.984142 11 14.041269 11.286452 13.25 11.8125 L 11.9375 10.5 L 13.71875 8.71875 L 12.28125 7.28125 L 10.5 9.0625 L 7.4375 6 L 11 6 L 11 4 L 5 4 L 4 4 L 4 5 L 4 11 L 6 11 L 6 7.4375 L 9.0625 10.5 L 7.28125 12.28125 L 8.71875 13.71875 L 10.5 11.9375 L 11.8125 13.25 C 11.286452 14.041269 11 14.984142 11 16 C 11 18.405882 12.727252 20.437913 15 20.90625 L 15 25.5625 L 12.71875 23.28125 L 11.28125 24.71875 L 15.28125 28.71875 L 16 29.40625 L 16.71875 28.71875 L 20.71875 24.71875 L 19.28125 23.28125 L 17 25.5625 L 17 20.90625 C 19.272748 20.437913 21 18.405882 21 16 C 21 14.984142 20.713548 14.041269 20.1875 13.25 L 23.5 9.9375 L 25.78125 12.21875 L 27.21875 10.78125 L 24.9375 8.5 L 28.03125 5.40625 L 26.59375 3.96875 z M 16 13 C 17.668699 13 19 14.331301 19 16 C 19 17.668699 17.668699 19 16 19 C 14.331301 19 13 17.668699 13 16 C 13 14.331301 14.331301 13 16 13 z"/></svg>