<svg xmlns="http://www.w3.org/2000/svg" viewBox="0 0 32 32"><path d="M22 3.5c-.58 0-1.143.16-1.656.438-1.693.92-2.322 3.024-1.407 4.718.006.01.45.945.875 2.47-2.123-3.064-4.39-4.675-4.5-4.75-.017-.016-.045-.018-.062-.032a1 1 0 0 0-.094-.063c-.613-.484-1.358-.78-2.156-.78-.71 0-1.383.22-1.97.626-1.582 1.088-1.988 3.254-.905 4.844 0 0 .254.448.53 1.092-.354-.28-.708-.532-1.06-.75C8.18 10.442 7.005 10 6 10c-1.645 0-3 1.355-3 3 0 1.008.614 1.788 1.28 2.344.67.555 1.454 1.024 2.25 1.562 1.484 1 2.976 2.2 3.814 4.47-.223.522-.402.927-.406.936-.937 1.662-.333 3.77 1.343 4.72.527.297 1.118.468 1.72.468 1.26 0 2.41-.686 3.03-1.78.165-.29 1.114-2.056 1.783-4.595.42 1.26.784 2.9.688 4.813a1 1 0 0 0 .064.593c.003.023-.004.044 0 .065.196 1.104.9 2.102 2 2.593.45.203.94.313 1.437.313 1.38 0 2.626-.802 3.19-2.062.235-.53 2.31-5.34 2.31-11.343 0-6.145-2.19-10.327-2.437-10.782C24.448 4.193 23.28 3.5 22 3.5zm0 2c.53 0 1.04.285 1.313.78.088.164 2.187 4.057 2.187 9.814 0 5.694-2.038 10.337-2.125 10.53-.25.558-.802.876-1.375.876-.204 0-.426-.036-.625-.125-.756-.338-1.087-1.244-.75-2 .028-.064 1.64-3.755 1.844-8.344a1 1 0 0 0 .03-.53c.002-.136 0-.267 0-.405 0-4.95-1.795-8.34-1.814-8.375-.393-.727-.132-1.638.594-2.032.23-.125.477-.188.72-.188zm-9 2c.355 0 .693.136.97.375a1 1 0 0 0 .03.03c.08.074.155.16.22.25.09.135 2.28 3.322 2.28 8.033 0 4.636-2.098 8.404-2.188 8.562-.275.487-.79.75-1.312.75-.25 0-.517-.055-.75-.188-.72-.408-.97-1.34-.563-2.062.027-.048 1.813-3.25 1.813-7.063 0-3.732-1.703-6.317-1.72-6.343-.464-.683-.305-1.595.376-2.063.258-.177.55-.28.844-.28zm4.97 4.47c.947 1.304 1.865 2.898 2.5 4.81-.06 1.61-.3 3.095-.595 4.345-.547-1.905-1.207-3.07-1.438-3.438.043-.497.063-.98.063-1.5 0-1.57-.225-2.988-.53-4.218zM6 12c.1 0 1.36.308 2.53 1.03 1.096.677 2.225 1.67 2.97 3v.157c0 .885-.114 1.724-.28 2.5-1.053-1.588-2.4-2.653-3.564-3.437-.858-.58-1.628-1.05-2.093-1.438C5.096 13.425 5 13.242 5 13c0-.565.435-1 1-1z"/></svg>