<svg xmlns="http://www.w3.org/2000/svg" viewBox="0 0 32 32"><path style="text-indent:0;text-align:start;line-height:normal;text-transform:none;block-progression:tb;-inkscape-font-specification:Bitstream Vera Sans" d="M11 4C9.355 4 8 5.355 8 7v18c0 1.645 1.355 3 3 3h10c1.645 0 3-1.355 3-3V7c0-1.645-1.355-3-3-3H11zm0 2h10c.555 0 1 .445 1 1v18c0 .555-.445 1-1 1H11c-.555 0-1-.445-1-1V7c0-.555.445-1 1-1zm5 17c-.552 0-1 .448-1 1s.448 1 1 1 1-.448 1-1-.448-1-1-1z" color="#000" overflow="visible" font-family="Bitstream Vera Sans"/></svg>