<svg xmlns="http://www.w3.org/2000/svg" viewBox="0 0 32 32"><path style="text-indent:0;text-align:start;line-height:normal;text-transform:none;block-progression:tb;-inkscape-font-specification:Bitstream Vera Sans" d="M11.75 5l-.063.938-.187 3L11.437 10h2.001l-.876 12h-2l-.062.938-.188 3L10.22 27H20.25l.063-.938.187-3L20.563 22h-2.001l.875-12h2.001l.062-.938.188-3L21.78 5H11.75zm1.875 2h6l-.063 1h-2l-.062.938-1 14L16.437 24h2.001l-.063 1h-6l.063-1h2l.062-.938 1-14L15.563 8h-2.001l.063-1z" color="#000" overflow="visible" font-family="Bitstream Vera Sans"/></svg>