<svg xmlns="http://www.w3.org/2000/svg" viewBox="0 0 32 32"><path d="M16 3c-2.922 0-5.534.98-7.688 2.594l-.687.5.375.75C7.98 6.804 8 6.8 8 7c0 .555-.445 1-1 1-.2 0-.195-.02-.156 0l-.75-.375-.5.688C3.98 10.466 3 13.078 3 16c0 4.977 2.798 9.423 7.03 11.594l.658.343.53-.53c.283-.283.515-.407.782-.407.467 0 .954.445 1 .906l.094.782.75.093c.687.1 1.36.22 2.156.22 6.695 0 12.15-4.983 12.906-11.47l.063-.78-.69-.28c-.03-.013-.28-.314-.28-.47 0-.156.25-.457.28-.47l.69-.28-.064-.78C28.15 7.982 22.696 3 16 3zm-.844 2.03c.525.35 2.032 1.474 3.406 3.69l.282.467h.75c.466 0 .812.346.812.813 0 .267-.065.346-.406.688l-.438.437.188.594c.08.236.19.636.313 1l.187.56.594.095c.138.023.156.063.156.22 0 .1-.054.167-.156.217l-.532.282v.594c0 .566.094 1.08.094 1.312 0 3.118-.872 5.546-1.875 7.188l-.28.468.25.5c.1.2.094.172.094.25 0 .224.036.188-.188.188h-.782l-.31.375c-.913 1.105-1.7 1.7-2.095 1.968-.22-.03-.426-.06-.658-.094C14.082 25.804 13.195 25 12 25c-.59 0-1.067.23-1.5.5C7.21 23.587 5 20.024 5 16c0-2.274.754-4.256 1.938-6H7c1.645 0 3-1.355 3-3v-.063c1.526-1.035 3.23-1.745 5.156-1.906zm3.156.22c4.423.936 7.752 4.507 8.47 9.03-.454.46-.782 1.024-.782 1.72s.328 1.26.78 1.72c-.71 4.49-4 8.03-8.374 9 .074-.082.144-.135.22-.22 1.067-.132 1.968-1.002 1.968-2.094 0-.267-.09-.394-.157-.593 1.1-1.935 1.97-4.534 1.97-7.813 0-.405-.034-.674-.063-.938.365-.39.656-.874.656-1.468 0-.762-.49-1.38-1.125-1.78-.02-.072-.07-.14-.094-.22.324-.43.626-.927.626-1.594 0-1.388-1.103-2.447-2.437-2.656-.548-.816-1.118-1.512-1.657-2.094zM13.72 8.344c-1.3-.006-2.488.86-2.876 2.156-.476 1.586.6 3.124 2.062 3.563l.594-1.907c-.537-.16-.874-.648-.75-1.062.156-.52.66-.818 1.156-.72l.375-1.968c-.187-.037-.376-.06-.56-.062zm-5 7.437c-1.146.492-1.875 1.784-1.314 3 .007.006-.003.026 0 .032.007.014.025.018.032.032.527 1.114 1.843 1.804 3.062 1.28l-.78-1.843c-.152.066-.4-.045-.5-.28v-.03l-.033-.032c.02.036.078-.212.313-.313l-.78-1.844zm4.467 3.314c-1.215.912-1.67 2.688-.687 4 .912 1.216 2.688 1.703 4 .718l-1.188-1.625c-.287.216-.93.103-1.218-.28-.216-.29-.072-.93.312-1.22l-1.22-1.593z"/></svg>