<svg xmlns="http://www.w3.org/2000/svg" viewBox="0 0 32 32"><path style="text-indent:0;text-align:start;line-height:normal;text-transform:none;block-progression:tb;-inkscape-font-specification:Bitstream Vera Sans" d="M27 3.78l-1.188.25-16 3L9 7.157v13.407C8.407 20.212 7.732 20 7 20c-2.197 0-4 1.803-4 4s1.803 4 4 4 4-1.803 4-4V12.812l14-2.624v7.374c-.593-.348-1.268-.562-2-.562-2.197 0-4 1.803-4 4s1.803 4 4 4 4-1.803 4-4V3.78zM25 6.19v2l-14 2.624v-2l14-2.624zM23 19c1.116 0 2 .884 2 2s-.884 2-2 2-2-.884-2-2 .884-2 2-2zM7 22c1.116 0 2 .884 2 2s-.884 2-2 2-2-.884-2-2 .884-2 2-2z" color="#000" overflow="visible" font-family="Bitstream Vera Sans"/></svg>