<svg xmlns="http://www.w3.org/2000/svg" viewBox="0 0 32 32"><path d="M8.656 3c-.523 0-1.04.19-1.47.53l-.06.033-.032.03-3.125 3.22.03.03c-.963.892-1.263 2.224-.844 3.376.002.005-.002.024 0 .03.847 2.428 3.017 7.11 7.25 11.344 4.25 4.25 8.997 6.33 11.344 7.25h.03c1.217.405 2.532.116 3.47-.688l.03-.03.032-.032L28.407 25c.83-.83.83-2.264 0-3.094l-4.062-4.062-.032-.063c-.83-.83-2.295-.83-3.125 0l-.03.032-1.97 1.97c-.723-.347-2.446-1.24-4.093-2.813-1.636-1.563-2.474-3.36-2.78-4.064l1.998-2c.842-.842.855-2.236-.03-3.062l.03-.032-.093-.093-4-4.126-.033-.03-.062-.033C9.697 3.19 9.18 3 8.655 3zm0 2c.074 0 .147.036.22.094l4 4.093.062.063.03.03c-.007-.005.06.097-.062.22l-2.5 2.5-.47.438.22.624s1.15 3.073 3.563 5.376l.217.187C16.26 20.747 19 21.905 19 21.905l.625.282.47-.468 2.5-2.5c.17-.17.14-.17.31 0L27 23.312c.17.17.17.11 0 .28l-3.063 3.063c-.46.396-.947.476-1.53.282-2.268-.89-6.67-2.827-10.595-6.75C7.857 16.23 5.79 11.74 5.032 9.563c-.153-.407-.043-1.01.312-1.313l.03-.03.032-.033 3.032-3.093C8.51 5.036 8.582 5 8.655 5z"/></svg>