<svg xmlns="http://www.w3.org/2000/svg" viewBox="0 0 32 32"><path d="M16 3.97c-1.054 0-2.118.515-2.75 1.5l-2.813 4.624 1.72 1.03 2.812-4.593c.54-.805 1.563-.823 2.092 0l3.125 5-1.5.876L23.313 15V9.687l-1.437.844-3.125-5.06c-.632-.985-1.696-1.5-2.75-1.5zm-5.594 8.124l-4.5 2.594 1.25.75-2.562 4.218-.032-.03c-.012.017.012.044 0 .06-1.47 2.23.226 5.314 2.938 5.314H13v-2H7.5c-1.267 0-1.946-1.25-1.28-2.22l.03-.03v-.03l2.625-4.25 1.53.936v-5.312zm14.656 3.562l-1.718 1.063 2.5 4c.64 1.087-.087 2.28-1.25 2.28H19v-2l-4.906 3L19 27v-2h5.594c2.637 0 4.328-3 2.968-5.313v-.03l-2.5-4z"/></svg>