<svg xmlns="http://www.w3.org/2000/svg" viewBox="0 0 32 32"><path d="M15 3v2h1V3h-1zm-2.156.438L12 3.655l-.03.03-.033.002-.843.312h-.03l-.033.03-.092.032.843 1.813h.033l.062-.03.688-.25.062-.032.78-.22-.56-1.905zM20 4v8h2V6.78c3.03 1.98 5 5.28 5 9.22 0 6.055-4.945 11-11 11S5 22.055 5 16v-1H3v1c0 7.145 5.855 13 13 13s13-5.855 13-13c0-4.06-1.795-7.615-4.656-10H28V4h-8zM9.156 5l-.53.344-.032.03h-.03l-.69.532-.03.032h-.032l-.28.25 1.312 1.5.22-.188.06-.03.563-.44L9.75 7l.47-.313L9.155 5zM6.094 7.594l-.22.28-.03.032-.032.032-.53.687v.03l-.032.033-.344.53 1.688 1.095.28-.47.064-.062.437-.592.03-.032.22-.25-1.53-1.312zM3.97 11l-.033.125-.03.03v.033L3.593 12v.03l-.03.064-.22.844 1.906.53.22-.78.03-.063.25-.688.03-.062v-.03L3.97 11z"/></svg>