<svg xmlns="http://www.w3.org/2000/svg" viewBox="0 0 32 32"><path d="M12.313 4.53l-1.844.75 1.155 2.876c-1.453.815-2.654 2.016-3.47 3.47l-2.874-1.157-.75 1.842 2.845 1.157C7.14 14.27 7 15.124 7 16c0 .875.14 1.73.375 2.53L4.53 19.688l.75 1.844 2.876-1.155c.813 1.45 2.023 2.652 3.47 3.47l-1.157 2.874 1.842.75 1.157-2.845c.8.236 1.653.375 2.53.375.875 0 1.73-.14 2.53-.375l1.157 2.844 1.844-.75-1.155-2.876c1.453-.815 2.654-2.016 3.47-3.47l2.874 1.157.75-1.843-2.845-1.156c.235-.8.375-1.655.375-2.53 0-.875-.14-1.73-.375-2.53l2.844-1.158-.75-1.843-2.876 1.155c-.815-1.453-2.016-2.654-3.47-3.47l1.157-2.874-1.843-.75-1.156 2.845C17.73 7.14 16.876 7 16 7c-.875 0-1.73.14-2.53.375L12.31 4.53zM16 9c3.878 0 7 3.122 7 7s-3.122 7-7 7-7-3.122-7-7 3.122-7 7-7zm0 3c-2.197 0-4 1.803-4 4s1.803 4 4 4 4-1.803 4-4-1.803-4-4-4zm0 2c1.116 0 2 .884 2 2s-.884 2-2 2-2-.884-2-2 .884-2 2-2z"/></svg>