<svg xmlns="http://www.w3.org/2000/svg" viewBox="0 0 32 32"><path d="M16 4c-2.144 0-3.884 1.72-3.97 3.844C8.427 9.374 6 12.944 6 17c0 .17-.008.36 0 .563-1.185.696-2 1.972-2 3.437 0 2.197 1.803 4 4 4 .575 0 1.13-.122 1.625-.344C11.358 26.112 13.618 27 16 27s4.642-.888 6.375-2.344c.496.222 1.05.344 1.625.344 2.197 0 4-1.803 4-4 0-1.48-.825-2.777-2.03-3.47.015-.16.03-.32.03-.53 0-4.057-2.426-7.625-6.03-9.156C19.883 5.72 18.143 4 16 4zm0 2c1.116 0 2 .884 2 2s-.884 2-2 2-2-.884-2-2 .884-2 2-2zm-3.53 3.844C13.14 11.118 14.47 12 16 12c1.53 0 2.86-.882 3.53-2.156C22.21 11.144 24 13.88 24 17c-2.197 0-4 1.803-4 4 0 .895.31 1.706.813 2.375C19.474 24.387 17.756 25 16 25c-1.756 0-3.475-.613-4.813-1.625.503-.67.813-1.48.813-2.375 0-2.197-1.803-4-4-4 0-3.12 1.79-5.856 4.47-7.156zM8 19c1.116 0 2 .884 2 2s-.884 2-2 2-2-.884-2-2 .884-2 2-2zm16 0c1.116 0 2 .884 2 2s-.884 2-2 2-2-.884-2-2 .884-2 2-2z"/></svg>