<svg xmlns="http://www.w3.org/2000/svg" viewBox="0 0 32 32"><path d="M16 7.78l-.313.095-12.5 4.188L.345 13 2 13.53v8.75c-.597.347-1 .98-1 1.72 0 1.105.895 2 2 2s2-.895 2-2c0-.74-.403-1.373-1-1.72v-8.06l2 .655V20c0 .82.5 1.5 1.094 1.97.594.467 1.332.797 2.218 1.093 1.774.59 4.112.937 6.688.937 2.576 0 4.914-.346 6.688-.938.886-.295 1.624-.625 2.218-1.093C25.5 21.5 26 20.82 26 20v-5.125l2.813-.938L31.655 13l-2.843-.938-12.5-4.187L16 7.78zm0 2.095L25.375 13 16 16.125 6.625 13 16 9.875zm-8 5.688l7.688 2.562.312.094.313-.095L24 15.562V20c0 .01.004.126-.313.375-.316.25-.883.565-1.625.813C20.58 21.681 18.395 22 16 22c-2.395 0-4.58-.318-6.063-.813-.74-.247-1.308-.563-1.624-.812C7.995 20.125 8 20.01 8 20v-4.438z"/></svg>