<svg xmlns="http://www.w3.org/2000/svg" viewBox="0 0 32 32"><path d="M21 3c-4.43 0-8 3.57-8 8 0 .235.037.553.063.844L4.5 20.406c-1.968 1.97-1.968 5.126 0 7.094s5.125 1.968 7.094 0l8.562-8.563c.29.026.61.063.844.063 4.43 0 8-3.57 8-8 0-1.367-.352-2.634-.938-3.688l-.625-1.156-.937.938-4.313 4.28-1.562-1.562 4.28-4.312.94-.938-1.157-.625C23.634 3.353 22.367 3 21 3zm0 2c.486 0 .848.21 1.28.313l-3.78 3.78-.72.72.72.687 3 3 .688.72.718-.72 3.782-3.78c.103.432.312.794.312 1.28 0 3.37-2.63 6-6 6-.4 0-.72 0-.97-.063l-.53-.156-.406.407-8.907 8.907c-1.23 1.23-3.05 1.23-4.28 0l-.032-.032c-1.2-1.23-1.19-3.03.03-4.25l8.907-8.906.407-.406-.158-.53c-.06-.25-.062-.57-.062-.97 0-3.37 2.63-6 6-6z"/></svg>