<svg xmlns="http://www.w3.org/2000/svg" viewBox="0 0 32 32"><path style="text-indent:0;text-align:start;line-height:normal;text-transform:none;block-progression:tb;-inkscape-font-specification:Bitstream Vera Sans" d="M10.28 5.28L7 8.563l-1.28-1.28-1.44 1.437 2 2 .72.686.72-.687 4-4-1.44-1.44zM15 7v2h13V7H15zm-4.72 6.28L7 16.564 5.72 15.28l-1.44 1.44 2 2 .72.686.72-.687 4-4-1.44-1.44zM15 15v2h13v-2H15zm-4.72 6.28L7 24.563l-1.28-1.28-1.44 1.437 2 2 .72.686.72-.687 4-4-1.44-1.44zM15 23v2h13v-2H15z"/></svg>