<svg xmlns="http://www.w3.org/2000/svg" viewBox="0 0 32 32"><path d="M18 4c-3.666 0-6.446.862-8.313 2.625C7.822 8.388 7 10.958 7 14v.906C6.428 15.45 6 16.15 6 17c0 1.26.89 2.154 2 2.594.37 1.167.773 2.393 1.22 3.437.485 1.142.924 2.048 1.53 2.69 2.87 3.035 7.63 3.035 10.5 0 .606-.642 1.013-1.548 1.5-2.69.446-1.044.88-2.27 1.25-3.436 1.11-.44 2-1.334 2-2.594 0-.846-.43-1.547-1-2.094V14c0-2.824-.643-4.834-1.78-6.156-.966-1.12-2.255-1.58-3.532-1.72l-.782-1.56-.28-.564H18zm-.594 2.063l.688 1.375c.333.666.463 1.14.468 1.343.006.204.013.12-.03.158-.087.073-.93.29-1.97.343-1.04.054-2.264.028-3.406.47-1.14.442-2.143 1.627-2.156 3.25h2c.008-.986.237-1.128.875-1.375.638-.247 1.738-.32 2.813-.375 1.074-.055 2.183.01 3.125-.78.47-.397.77-1.08.75-1.75-.005-.148-.04-.29-.063-.44.434.186.835.467 1.188.876C22.413 10 23 11.482 23 14V15.844l.5.28c.304.177.5.496.5.876 0 .534-.382.957-.906 1l-.688.03-.187.657c-.37 1.204-.832 2.475-1.282 3.532-.45 1.056-.967 1.956-1.125 2.124-2.13 2.25-5.497 2.25-7.625 0-.16-.168-.675-1.068-1.126-2.125-.45-1.058-.91-2.33-1.28-3.532l-.188-.657-.688-.03C8.384 17.957 8 17.534 8 17c0-.374.193-.698.5-.875l.5-.28V14c0-2.697.684-4.636 2.063-5.938 1.28-1.21 3.37-1.9 6.343-2zM13 16c-.552 0-1 .448-1 1s.448 1 1 1 1-.448 1-1-.448-1-1-1zm6 0c-.552 0-1 .448-1 1s.448 1 1 1 1-.448 1-1-.448-1-1-1z"/></svg>