<svg xmlns="http://www.w3.org/2000/svg" viewBox="0 0 32 32"><path d="M18.125 4c-3.304 0-6.984.562-9.72 3.594C5.673 10.626 4 15.88 4 25v1H12.656c.99.625 2.103 1 3.344 1 1.24 0 2.355-.383 3.344-1H29v-1c0-8.125-1.57-12.844-3.625-15.594-1.81-2.42-3.892-3.094-5.438-3.25L19 4.5l-.28-.5h-.595zm-.563 2.063l.813 1.437.28.5h.595c1.01 0 2.848.34 4.53 2.594C25.386 12.74 26.8 16.83 26.938 24h-5.375c.11-.14.21-.292.313-.438C23.233 21.625 24 19.207 24 17h-2c0 1.722-.644 3.827-1.75 5.406C19.144 23.986 17.665 25 16 25c-1.663 0-3.143-1.01-4.25-2.594C10.643 20.824 10 18.71 10 17c0-.444.085-.667.22-.844.132-.177.364-.33.717-.468.707-.28 1.9-.395 3.157-.5 1.258-.106 2.57-.206 3.75-.75C19.024 13.893 20 12.66 20 11h-2c0 1.044-.274 1.304-.97 1.625-.694.32-1.882.458-3.124.563-1.242.104-2.55.163-3.72.624-.583.23-1.148.578-1.56 1.126C8.21 15.485 8 16.218 8 17c0 2.198.768 4.59 2.125 6.53.11.16.225.318.344.47H6.06c.135-8.163 1.71-12.696 3.844-15.063 2.088-2.314 4.783-2.815 7.656-2.874zM13 17c-.552 0-1 .448-1 1s.448 1 1 1 1-.448 1-1-.448-1-1-1zm6 0c-.552 0-1 .448-1 1s.448 1 1 1 1-.448 1-1-.448-1-1-1z"/></svg>