<svg xmlns="http://www.w3.org/2000/svg" viewBox="0 0 32 32"><path d="M6 6C4.355 6 3 7.355 3 9v6.78c-.61.552-1 1.342-1 2.22v9h5v-2h18v2h5v-9c0-.878-.39-1.668-1-2.22V9c0-1.645-1.355-3-3-3H6zm0 2h20c.555 0 1 .445 1 1v6h-2v-1c0-1.645-1.355-3-3-3h-4c-.767 0-1.467.3-2 .78-.533-.48-1.233-.78-2-.78h-4c-1.645 0-3 1.355-3 3v1H5V9c0-.555.445-1 1-1zm4 5h4c.555 0 1 .445 1 1v1H9v-1c0-.555.445-1 1-1zm8 0h4c.555 0 1 .445 1 1v1h-6v-1c0-.555.445-1 1-1zM5 17h22c.555 0 1 .445 1 1v7h-1v-2H5v2H4v-7c0-.555.445-1 1-1z"/></svg>