<svg xmlns="http://www.w3.org/2000/svg" viewBox="0 0 32 32"><path d="M4 7c-.552 0-1 .448-1 1s.448 1 1 1h2.22l2.624 10.5c.223.89 1.02 1.5 1.937 1.5h12.47c.903 0 1.67-.6 1.907-1.47L27.75 10h-2.094l-2.406 9H10.78L8.157 8.5C7.934 7.61 7.137 7 6.22 7H4zm18 14c-1.645 0-3 1.355-3 3s1.355 3 3 3 3-1.355 3-3-1.355-3-3-3zm-9 0c-1.645 0-3 1.355-3 3s1.355 3 3 3 3-1.355 3-3-1.355-3-3-3zm3-14v5h-3l4 4 4-4h-3V7h-2zm-3 16c.564 0 1 .436 1 1 0 .564-.436 1-1 1-.564 0-1-.436-1-1 0-.564.436-1 1-1zm9 0c.564 0 1 .436 1 1 0 .564-.436 1-1 1-.564 0-1-.436-1-1 0-.564.436-1 1-1z"/></svg>