<svg xmlns="http://www.w3.org/2000/svg" viewBox="0 0 32 32"><path d="M16 7C9.617 7 4.03 9.063 4.03 9.063l-.593.218-.062.596-1.344 10.25c-.363 2.835 1.667 5.48 4.5 5.844 2.64.34 5.01-1.44 5.627-3.97h7.688c.62 2.528 2.986 4.31 5.625 3.97 2.834-.366 4.864-3.01 4.5-5.845l-1.345-10.25-.063-.594-.593-.216S22.38 7 16 7zm0 2c5.486 0 10.007 1.524 10.75 1.78l1.22 9.626c.226 1.763-.988 3.336-2.75 3.563-1.763.225-3.368-.99-3.595-2.75l-.03-.346L21.47 20H10.53l-.124.874-.03.344c-.227 1.762-1.832 2.976-3.595 2.75-1.76-.228-2.975-1.8-2.75-3.564l1.22-9.625C5.994 10.524 10.515 9 16 9zm-7 3v2H7v2h2v2h2v-2h2v-2h-2v-2H9zm13 0c-.552 0-1 .448-1 1s.448 1 1 1 1-.448 1-1-.448-1-1-1zm-2 2c-.552 0-1 .448-1 1s.448 1 1 1 1-.448 1-1-.448-1-1-1zm4 0c-.552 0-1 .448-1 1s.448 1 1 1 1-.448 1-1-.448-1-1-1zm-2 2c-.552 0-1 .448-1 1s.448 1 1 1 1-.448 1-1-.448-1-1-1z"/></svg>