<svg xmlns="http://www.w3.org/2000/svg" viewBox="0 0 32 32"><path d="M22.406 4L17.78 8.594c-1.152 1.153-1.152 3.065 0 4.22L16 14.56l-1.28-1.28-7.5-7.5-.72-.688-.72.687c-1.77 1.772-1.77 4.668 0 6.44l6.282 6.28-7.78 7.78 1.437 1.44 7.78-7.782 1.188 1.156.718.718.688-.718 1.78-1.782 8.407 8.407 1.44-1.44-9.126-9.093L17.437 16l1.75-1.78h.032l.03.03c1.158 1.1 3.02 1.105 4.156-.03l.094-.126 4.5-4.5-1.406-1.406L22 12.78c-.435.436-.937.445-1.375.033l5.28-5.313L24.5 6.094l-5.313 5.28c-.412-.437-.403-.94.032-1.374l4.593-4.594L22.405 4zM6.78 8.22l9.69 9.686-1.064 1.063-8.187-8.19c-.742-.74-.764-1.676-.44-2.56z"/></svg>