<svg xmlns="http://www.w3.org/2000/svg" viewBox="0 0 32 32"><path d="M16 3c-.624 0-1.248.213-1.78.594L12.56 4.75 10.656 5h-.03l-.032.03c-1.275.285-2.28 1.29-2.563 2.564l-.03.03v.032l-.25 1.938-1.156 1.5-.032.03v.032c-.698 1.118-.73 2.56.032 3.625L7.78 16.44l.314 1.718-3.22 4.907-1.03 1.53h4.781l1.156 2.688.72 1.72 1.03-1.563 3.158-4.75c.846.35 1.806.38 2.624 0l3.157 4.75L21.5 29l.72-1.72 1.155-2.686H28.156l-1.03-1.532L24 18.313l.25-1.875 1.156-1.656.032-.03v-.03c.698-1.12.73-2.528-.032-3.595L24.25 9.47l-.375-1.876h.03c0-.025-.027-.04-.03-.063-.18-1.307-1.217-2.37-2.53-2.53h-.032l-1.875-.25-1.657-1.156C17.25 3.214 16.625 3 16 3zm0 2.03c.23 0 .458.07.625.19l1.78 1.28.22.156.25.032L21.063 7h.03c.448.05.764.365.813.813v.062l.407 2.22.03.217.157.188 1.28 1.78c.24.335.27.894-.03 1.376l-1.25 1.75-.156.22-.032.25L22 18.062v.03c-.018.165-.073.316-.156.438l-.063.032v.032c-.143.17-.342.284-.593.312h-.062l-2.28.407-.25.03-.19.157-1.78 1.28c-.333.24-.924.27-1.406-.03l-1.626-1.25-.188-.156-.28-.032L10.937 19h-.032c-.31-.034-.548-.194-.687-.438-.063-.11-.11-.236-.126-.375v-.062l-.406-2.28-.032-.25-.156-.19-1.28-1.78c-.24-.333-.27-.924.03-1.406l1.25-1.626.156-.188.03-.28.283-2.095c.002-.014.026-.015.03-.03.125-.487.513-.875 1-1 .015-.004.016-.028.03-.03l2.095-.282.25-.032.22-.156 1.78-1.28c.167-.12.396-.19.625-.19zm6.906 15.22l1.532 2.344H22.03l-.25.625-.686 1.593-2.125-3.25.468-.344 1.968-.345v.03c.025 0 .04-.027.063-.03.536-.073 1.027-.302 1.436-.625zm-13.812.03c.427.382.967.648 1.562.72h.03l1.908.25.437.344-2.124 3.218-.687-1.593-.25-.626H7.56l1.532-2.313z"/></svg>