<svg xmlns="http://www.w3.org/2000/svg" viewBox="0 0 32 32"><path d="M16 5c-4.12 0-7.36 3.13-7.813 7.125-1.794.3-3.246 1.52-3.843 3.22C1.884 16.054 0 18.248 0 21c0 3.324 2.676 6 6 6h20c3.324 0 6-2.676 6-6 0-1.76-.855-3.336-2.094-4.438-.232-3.514-3.035-6.318-6.562-6.5C22.14 7.133 19.378 5 16 5zm0 2c2.762 0 4.97 1.77 5.75 4.28l.22.72H23c2.755 0 5 2.245 5 5v.5l.406.313C29.35 18.52 30 19.733 30 21c0 2.276-1.724 4-4 4H6c-2.276 0-4-1.724-4-4 0-2.02 1.45-3.588 3.28-3.906l.657-.125.125-.657C6.362 14.963 7.556 14 9 14h1v-1c0-3.37 2.63-6 6-6zm-1 5v6.563l-2.28-2.282-1.44 1.44 4 4 .72.686.72-.687 4-4-1.44-1.44L17 18.563V12h-2z"/></svg>