<svg xmlns="http://www.w3.org/2000/svg" viewBox="0 0 32 32"><path d="M20.875 2.563l-.688.75-1.687 1.78h-3.594v3.5l-1.72 1.813-.686.72.688.687 1.5 1.5L3.03 25l-.717.72.718.686 2.564 2.563.718.718.688-.72 11.688-11.655 1.5 1.5.687.687.72-.688 1.81-1.718h3.5V13.5l1.782-1.688.75-.687-.718-.72-1.814-1.81v-3.5h-3.5L21.594 3.28l-.72-.717zm.03 2.874l1.376 1.375.314.282h2.312v2.312l.282.313 1.375 1.374-1.344 1.28-.314.282v2.438h-2.312l-.282.28-1.406 1.345-.843-.845 3.843-3.813.72-.687-.72-.72-2.562-2.56-.688-.69-.718.69-3.813 3.842-.844-.843 1.345-1.406.28-.282V7.094h2.44l.28-.313 1.28-1.343zm-.25 4.782l1.126 1.155-15.468 15.47-1.156-1.126 15.5-15.5zM19 21v1h-1v2h1v1h2v-1h1v-2h-1v-1h-2zm6 2v2h-2v2h2v2h2v-2h2v-2h-2v-2h-2z"/></svg>