<svg xmlns="http://www.w3.org/2000/svg" viewBox="0 0 32 32"><path d="M22 3v2h3.563l-3.375 3.406C20.985 7.504 19.53 7 18 7c-1.87 0-3.616.74-4.938 2.063C11.742 10.383 11 12.13 11 14s.74 3.614 2.063 4.938c.87.87 1.906 1.495 3.062 1.812.114-.087.242-.178.344-.28.432-.434.714-.958.874-1.532-1.09-.14-2.085-.617-2.875-1.407C13.524 16.588 13 15.336 13 14s.525-2.586 1.47-3.53C15.412 9.523 16.664 9 18 9s2.587.525 3.53 1.47c.945.943 1.47 2.195 1.47 3.53 0 .865-.245 1.67-.656 2.406.096.516.156 1.058.156 1.594 0 .498-.042.99-.125 1.47.2-.163.378-.348.563-.532C24.26 17.614 25 15.87 25 14c0-1.53-.504-2.984-1.406-4.188L27 6.438V10h2V3h-7zm-6.125 8.25c-.114.087-.242.178-.344.28-.432.434-.714.96-.874 1.533 1.09.14 2.085.616 2.875 1.406.945.943 1.47 2.195 1.47 3.53s-.525 2.586-1.47 3.53C16.588 22.477 15.336 23 14 23s-2.587-.525-3.53-1.47C9.524 20.588 9 19.336 9 18c0-.865.245-1.67.656-2.406C9.56 15.078 9.5 14.536 9.5 14c0-.498.042-.99.125-1.47-.2.163-.377.348-.563.533C7.742 14.384 7 16.13 7 18c0 1.53.504 2.984 1.406 4.188L6.72 23.875l-2-2-1.44 1.406 2 2-2 2 1.44 1.44 2-2 2 2 1.405-1.44-2-2 1.688-1.686C11.017 24.5 12.466 25 14 25c1.87 0 3.616-.74 4.938-2.063C20.26 21.616 21 19.87 21 18s-.74-3.614-2.063-4.938c-.87-.87-1.906-1.495-3.062-1.812z"/></svg>