<svg xmlns="http://www.w3.org/2000/svg" viewBox="0 0 32 32"><path d="M26.594 3.97L23.5 7.06l-2.28-2.28-1.44 1.437 2.282 2.28-3.312 3.313C17.96 11.286 17.016 11 16 11s-1.96.286-2.75.813L11.937 10.5l1.782-1.78-1.44-1.44-1.78 1.782L7.437 6H11V4H4v7h2V7.437L9.063 10.5 7.28 12.28l1.44 1.44 1.78-1.783 1.313 1.313C11.286 14.04 11 14.984 11 16c0 2.406 1.727 4.438 4 4.906v4.657l-2.28-2.282-1.44 1.44 4 4 .72.686.72-.687 4-4-1.44-1.44L17 25.563v-4.656c2.273-.468 4-2.5 4-4.906 0-1.016-.286-1.96-.813-2.75L23.5 9.937l2.28 2.282 1.44-1.44-2.282-2.28 3.093-3.094-1.436-1.437zM16 13c1.67 0 3 1.33 3 3s-1.33 3-3 3-3-1.33-3-3 1.33-3 3-3z"/></svg>