<svg xmlns="http://www.w3.org/2000/svg" viewBox="0 0 32 32"><path d="M12 5c-1.645 0-3 1.355-3 3 0 .353.073.684.188 1H4v6h1v13h22V15h1V9h-5.188c.115-.316.188-.647.188-1 0-1.645-1.355-3-3-3-1.75 0-2.94 1.33-3.72 2.438-.103.148-.188.292-.28.437-.092-.145-.177-.29-.28-.438C14.94 6.33 13.75 5 12 5zm0 2c.626 0 1.436.67 2.063 1.563.152.217.13.23.25.437H12c-.565 0-1-.435-1-1s.435-1 1-1zm8 0c.565 0 1 .435 1 1s-.435 1-1 1h-2.313c.12-.206.098-.22.25-.438C18.564 7.672 19.375 7 20 7zM6 11h20v2h-9v-1h-2v1H6v-2zm1 4h18v11h-8V16h-2v10H7V15z"/></svg>