<svg xmlns="http://www.w3.org/2000/svg" viewBox="0 0 32 32"><path d="M9 7c-3.302 0-6 2.698-6 6 0 1.984.975 3.75 2.47 4.844C2.83 19.154 1 21.864 1 25h2c0-3.326 2.674-6 6-6s6 2.674 6 6h2c0-3.326 2.674-6 6-6s6 2.674 6 6h2c0-3.136-1.83-5.846-4.47-7.156C28.026 16.75 29 14.984 29 13c0-3.302-2.698-6-6-6s-6 2.698-6 6c0 1.984.975 3.75 2.47 4.844-1.46.724-2.68 1.86-3.47 3.28-.79-1.42-2.01-2.556-3.47-3.28C14.026 16.75 15 14.984 15 13c0-3.302-2.698-6-6-6zm0 2c2.22 0 4 1.78 4 4 0 2.22-1.78 4-4 4-2.22 0-4-1.78-4-4 0-2.22 1.78-4 4-4zm14 0c2.22 0 4 1.78 4 4 0 2.22-1.78 4-4 4-2.22 0-4-1.78-4-4 0-2.22 1.78-4 4-4z"/></svg>