<svg xmlns="http://www.w3.org/2000/svg" viewBox="0 0 32 32"><path d="M6.813 2.406L5.405 3.812 7.5 5.906 8.906 4.5 6.812 2.406zm18.375 0L23.093 4.5 24.5 5.906l2.094-2.093-1.407-1.407zM16 3.03c-.33.004-.664.023-1 .064-.01 0-.02-.002-.03 0-4.056.465-7.284 3.742-7.845 7.78-.448 3.25.892 6.197 3.125 8.095.956.818 1.547 1.913 1.75 3.03v6H14.28c.348.597.983 1 1.72 1s1.372-.403 1.72-1H20v-4h.094v-1.188c0-1.466.762-2.944 2-4.093C23.75 17.06 25 14.705 25 12c0-4.94-4.066-9.016-9-8.97zm0 2c3.865-.054 7 3.11 7 6.97 0 2.094-.97 3.938-2.313 5.28l.032.032c-1.345 1.254-2.203 2.896-2.44 4.688h-4.374c-.22-1.714-.955-3.373-2.344-4.563-1.767-1.5-2.82-3.76-2.468-6.312.437-3.15 2.993-5.683 6.125-6.03.262-.034.522-.06.78-.064zM2 12v2h3v-2H2zm25 0v2h3v-2h-3zM7.5 20.094l-2.094 2.093 1.407 1.407L8.905 21.5 7.5 20.094zm17 0L23.094 21.5l2.093 2.094 1.407-1.407-2.094-2.093zM14 24h4v2h-4v-2z"/></svg>