<svg xmlns="http://www.w3.org/2000/svg" viewBox="0 0 32 32"><path d="M5 6C3.355 6 2 7.355 2 9v14c0 1.645 1.355 3 3 3h22c1.645 0 3-1.355 3-3V9c0-1.645-1.355-3-3-3H5zm0 2h22c.565 0 1 .435 1 1v14c0 .565-.435 1-1 1H5c-.565 0-1-.435-1-1V9c0-.565.435-1 1-1zm7 1c-3.854 0-7 3.146-7 7s3.146 7 7 7c1.486 0 2.864-.455 4-1.25 1.13.792 2.512 1.25 4 1.25 3.854 0 7-3.146 7-7s-3.146-7-7-7c-1.488 0-2.87.458-4 1.25C14.864 9.455 13.486 9 12 9zm0 2c1.282 0 2.43.496 3.313 1.28-.41.515-.745 1.09-.97 1.72h2.22c.14.318.272.65.343 1h-2.812c-.056.326-.094.658-.094 1 0 .342.04.674.094 1h2.812c-.07.35-.204.682-.343 1h-2.22c.225.63.56 1.205.97 1.72C14.43 20.503 13.283 21 12 21c-2.773 0-5-2.227-5-5s2.227-5 5-5zm8 0c2.774 0 5 2.226 5 5s-2.226 5-5 5c-.915 0-1.762-.26-2.5-.688C18.44 19.12 19 17.63 19 16c0-1.63-.56-3.12-1.5-4.313.738-.428 1.585-.687 2.5-.687z"/></svg>