<svg xmlns="http://www.w3.org/2000/svg" viewBox="0 0 32 32"><path d="M5.97 3l-.314.344S4.9 4 4.406 4v2c.68 0 1.15-.276 1.594-.53V10h2V3H5.97zM11 6v2h17V6H11zm-4.5 6C5.117 12 4 13.117 4 14.5v.5h2v-.5c0-.217.283-.5.5-.5.217 0 .5.283.5.5l-.03.03-.064.064-2.593 2.5-.313.28V19h5v-2H7.28l.876-.875.125-.094-.03-.03c.502-.41.75-1.02.75-1.5C9 13.117 7.883 12 6.5 12zm4.5 3v2h17v-2H11zm-7 6v2h1.375l-.25.406-.125.22V25h1.5c.217 0 .5.283.5.5 0 .217-.283.5-.5.5H4v2h2.5C7.883 28 9 26.883 9 25.5c0-1.005-.678-1.696-1.53-2.094l.405-.687.125-.25V21H4zm7 3v2h17v-2H11z"/></svg>