<svg xmlns="http://www.w3.org/2000/svg" viewBox="0 0 32 32"><path d="M8.906 5l-.187.78-3.69 17L4.75 24h4.875l-.594 2.78L8.75 28h6.97l.155-.813 1.03-4.812h2.69c3.762 0 7.065-2.444 7.905-6.375.44-2.066-.026-3.816-1-5-.79-.96-1.86-1.538-2.97-1.813-.212-.986-.665-1.83-1.28-2.468C21.11 5.533 19.534 5 18.062 5H8.908zm1.625 2h7.534c.98 0 2.062.38 2.75 1.094.687.715 1.09 1.734.718 3.47-.66 3.09-2.995 4.81-5.936 4.81H11.28l-.155.782L10.095 22H7.25l3.28-15zm2.534 1.47l-.188.78-1.03 4.625-.283 1.22h3.532c1.777 0 3.313-1.294 3.75-3.033h.03c.007-.02-.004-.04 0-.062.22-.876.08-1.773-.405-2.438-.498-.68-1.333-1.093-2.22-1.093h-3.186zm1.593 2h1.594c.314 0 .48.09.595.25.116.158.2.418.093.81v.033c-.188.81-1.142 1.53-1.843 1.53h-1.03l.592-2.624zm8.938.874c.53.216 1.022.51 1.375.937.58.71.903 1.685.56 3.284-.66 3.092-2.995 4.812-5.936 4.812H15.28l-.155.78L14.095 26H11.25l.438-2h.03l.157-.813 1.03-4.812h2.69c3.762 0 7.065-2.444 7.905-6.375.048-.226.067-.438.094-.656z"/></svg>