<svg xmlns="http://www.w3.org/2000/svg" viewBox="0 0 32 32"><path d="M24.688 4.03c-.837 0-1.648.337-2.282.97l-.093.094-.625-.594-.688.688L5.406 20.78l-.218.22-.063.313-1.094 5.5-.31 1.468 1.467-.31 5.5-1.095.313-.063.22-.218L26.81 11l.688-.688-.594-.593.063-.064.03-.062C28.267 8.327 28.267 6.267 27 5c-.633-.633-1.476-.97-2.313-.97zm0 1.97c.31 0 .64.14.906.406.533.534.533 1.248 0 1.782l-.094.093-1.78-1.78.093-.094c.266-.266.563-.406.875-.406zm-2.97 1.313l2.97 2.968-1.438 1.47-3-3 1.47-1.438zm-2.843 2.875l2.938 2.937-10.438 10.47-.406-1.814-.126-.624-.625-.125-1.814-.405 10.47-10.438zM6.97 22.343l2.186.5.5 2.187-2.03.407-1.064-1.062.407-2.03z"/></svg>