<svg xmlns="http://www.w3.org/2000/svg" viewBox="0 0 32 32"><path d="M16 4c-4.33 0-8 3.056-8 7v3h6v-3c0-.147.09-.362.438-.594.347-.23.914-.406 1.562-.406.652 0 1.217.177 1.563.406.345.23.437.43.437.594 0 .58-.19.98-.563 1.438-.373.458-.955.928-1.593 1.468C14.567 14.986 13 16.496 13 19v1h6v-1c0-.34.124-.58.5-.97.376-.388.996-.85 1.656-1.405C22.476 15.515 24 13.815 24 11c0-3.91-3.664-7-8-7zm0 2c3.396 0 6 2.365 6 5 0 2.145-.976 3.1-2.156 4.094-.59.496-1.22.98-1.782 1.562-.347.36-.615.828-.812 1.344h-1.938c.315-1.01.922-1.783 1.844-2.563.612-.517 1.28-1.056 1.844-1.75.564-.693 1-1.606 1-2.687 0-.96-.572-1.76-1.313-2.25C17.948 8.26 17.006 8 16 8c-1.01 0-1.95.258-2.688.75C12.575 9.242 12 10.042 12 11v1h-2v-1c0-2.684 2.597-5 6-5zm-3 16v6h6v-6h-6zm2 2h2v2h-2v-2z"/></svg>