<svg xmlns="http://www.w3.org/2000/svg" viewBox="0 0 32 32"><path d="M14 4c-3.854 0-7 3.146-7 7 0 2.41 1.23 4.552 3.094 5.813C6.527 18.343 4 21.88 4 26h2c0-4.43 3.57-8 8-8 1.376 0 2.654.358 3.78.97C16.67 20.342 16 22.102 16 24c0 4.406 3.594 8 8 8 4.406 0 8-3.594 8-8 0-4.406-3.594-8-8-8-1.747 0-3.37.575-4.688 1.53-.442-.277-.92-.51-1.406-.718C19.77 15.553 21 13.41 21 11c0-3.854-3.146-7-7-7zm0 2c2.773 0 5 2.227 5 5s-2.227 5-5 5-5-2.227-5-5 2.227-5 5-5zm10 12c3.326 0 6 2.674 6 6s-2.674 6-6 6-6-2.674-6-6 2.674-6 6-6zm-2.28 2.28l-1.44 1.44L22.563 24l-2.28 2.28 1.437 1.44L24 25.437l2.28 2.28 1.44-1.437L25.437 24l2.28-2.28-1.437-1.44L24 22.563l-2.28-2.28z"/></svg>