<svg xmlns="http://www.w3.org/2000/svg" viewBox="0 0 32 32"><path d="M16 3v2h1V3h-1zm3.156.438l-.562 1.906.78.218.064.032.687.25.063.03h.03l.845-1.81-.094-.033-.032-.03h-.032l-.843-.313h-.032l-.03-.03-.844-.22zM4 4v2h3.656C4.796 8.385 3 11.94 3 16c0 7.145 5.855 13 13 13s13-5.855 13-13v-1h-2v1c0 6.055-4.945 11-11 11S5 22.055 5 16c0-3.94 1.97-7.24 5-9.22V12h2V4H4zm18.844 1L21.78 6.688l.47.312.063.03.562.44.063.03.218.188 1.313-1.5-.282-.25h-.032l-.03-.032-.69-.53h-.03l-.03-.032L22.843 5zm3.062 2.594l-1.53 1.312.218.25.03.03.44.595.06.064.282.47 1.688-1.095-.344-.533-.03-.03v-.032l-.532-.688-.032-.03-.03-.032-.22-.28zM28.03 11l-1.81.844v.03l.03.063.25.688.03.063.22.78 1.906-.53-.218-.844-.032-.063V12l-.312-.813v-.03l-.032-.032-.03-.125z"/></svg>