<svg xmlns="http://www.w3.org/2000/svg" viewBox="0 0 32 32"><path d="M21.5 2.5v1.406c-.837.148-1.613.467-2.28.938l-1.032-.97-1.375 1.47 1 .937c-.45.657-.763 1.406-.907 2.22H15.5v2h1.406c.146.83.474 1.586.938 2.25l-1.063 1.03 1.44 1.44 1.03-1.064c.664.464 1.42.792 2.25.938V16.5h2v-1.406c.814-.144 1.563-.456 2.22-.906l.936 1 1.47-1.376-.97-1.03c.47-.67.79-1.445.938-2.282H29.5v-2h-1.406c-.146-.83-.474-1.586-.938-2.25l.938-.938-1.407-1.406-.937.938c-.664-.464-1.42-.792-2.25-.938V2.5h-2zm1 3.313c2.055 0 3.688 1.632 3.688 3.687 0 2.055-1.633 3.688-3.688 3.688s-3.688-1.633-3.688-3.688 1.633-3.688 3.688-3.688zM9.53 11.718l-1.842.75.718 1.81c-.952.57-1.766 1.37-2.344 2.314l-1.78-.72-.75 1.845 1.78.718c-.133.528-.218 1.086-.218 1.656 0 .57.085 1.126.218 1.656l-1.78.72.75 1.843 1.78-.72c.58.96 1.384 1.768 2.344 2.345l-.72 1.78 1.845.75.72-1.78c.533.134 1.083.218 1.656.218.57 0 1.128-.085 1.656-.218l.72 1.78 1.843-.75-.72-1.78c.946-.578 1.745-1.392 2.314-2.344l1.81.718.75-1.843-1.81-.72c.13-.53.218-1.087.218-1.656 0-.57-.087-1.128-.22-1.657l1.813-.718-.75-1.845-1.81.72c-.572-.942-1.37-1.743-2.314-2.314l.72-1.81-1.845-.75-.717 1.81c-.53-.132-1.086-.217-1.657-.217-.57 0-1.126.086-1.656.218l-.72-1.81zm2.376 3.592c2.663 0 4.78 2.12 4.78 4.782.002 2.663-2.117 4.812-4.78 4.812-2.663 0-4.812-2.15-4.812-4.812 0-2.663 2.15-4.782 4.812-4.782z"/></svg>