<svg xmlns="http://www.w3.org/2000/svg" viewBox="0 0 32 32"><path d="M5 7c-.552 0-1 .448-1 1s.448 1 1 1h2.22l2.624 10.5c.223.89 1.02 1.5 1.937 1.5h11.47c.903 0 1.67-.6 1.907-1.47L27.75 10H11l.5 2h13.656l-1.906 7H11.78L9.157 8.5C8.934 7.61 8.137 7 7.22 7H5zm17 14c-1.645 0-3 1.355-3 3s1.355 3 3 3 3-1.355 3-3-1.355-3-3-3zm-9 0c-1.645 0-3 1.355-3 3s1.355 3 3 3 3-1.355 3-3-1.355-3-3-3zm0 2c.564 0 1 .436 1 1 0 .564-.436 1-1 1-.564 0-1-.436-1-1 0-.564.436-1 1-1zm9 0c.564 0 1 .436 1 1 0 .564-.436 1-1 1-.564 0-1-.436-1-1 0-.564.436-1 1-1z"/></svg>