<svg xmlns="http://www.w3.org/2000/svg" viewBox="0 0 32 32"><path d="M13.063 4c-.874 0-1.647.45-2.188 1.03-.54.582-.935 1.31-1.28 2.095-.534 1.21-.91 2.554-1.25 3.813-1.087.316-2.01.71-2.75 1.187C4.727 12.683 4 13.457 4 14.5c0 .908.553 1.632 1.25 2.156.593.446 1.324.816 2.188 1.125.048.234.126.47.218.69-.843.477-2.178 1.397-3.468 3.156l-.594.844.844.593 3.28 2.25-.624 1.25L6.374 28h19.25l-.72-1.438-.623-1.25 3.283-2.25.844-.593-.593-.846c-1.29-1.76-2.626-2.68-3.47-3.156.093-.222.17-.457.22-.69.863-.308 1.594-.678 2.187-1.124.698-.524 1.25-1.248 1.25-2.156 0-1.045-.724-1.817-1.593-2.375-.742-.477-1.664-.87-2.75-1.188-.373-1.303-.787-2.67-1.312-3.874-.34-.775-.715-1.49-1.25-2.062-.536-.57-1.296-1-2.157-1-.583 0-1.024.162-1.5.28-.475.12-.958.22-1.437.22-.96 0-1.764-.5-2.937-.5zm0 2c.205 0 1.436.5 2.937.5.75 0 1.42-.15 1.938-.28.518-.132.913-.22 1-.22.23 0 .403.072.687.375.284.303.62.843.906 1.5.545 1.243.96 2.94 1.408 4.5 0-.002.054-.048-.093.03-.25.137-.772.313-1.407.408-1.27.19-3 .187-4.437.187-1.43 0-3.164-.02-4.437-.22-.636-.097-1.15-.268-1.406-.405-.078-.042-.107-.026-.125-.03a1 1 0 0 0 0-.033c.004-.01 0-.02 0-.03a1 1 0 0 0 .033-.032 1 1 0 0 0 .124-.438 1 1 0 0 0 0-.03c.36-1.328.76-2.735 1.25-3.845.293-.667.61-1.212.906-1.53.297-.32.5-.407.72-.407zm-4.876 7.094c.226.47.624.844 1.032 1.062.605.325 1.306.477 2.06.594 1.51.234 3.274.25 4.72.25 1.437 0 3.206.007 4.72-.22.754-.112 1.45-.26 2.06-.592.41-.223.807-.618 1.03-1.094.62.22 1.138.454 1.5.687.58.376.69.655.69.72 0 .06-.053.25-.47.564-.417.313-1.137.674-2.06.968-1.853.59-4.52.97-7.47.97s-5.62-.38-7.47-.97c-.925-.293-1.645-.654-2.06-.968C6.05 14.75 6 14.56 6 14.5c0-.066.078-.315.656-.688.363-.233.9-.49 1.532-.718zm2.594 5.47c.33.053.656.142 1 .186.13.877.816 1.652 1.91 1.72.84.05 1.79-.348 1.873-1.47.15.002.288 0 .438 0 .15 0 .29.002.44 0 .082 1.122 1.032 1.52 1.874 1.47 1.092-.068 1.776-.843 1.906-1.72.345-.044.67-.133 1-.188l-.095.625c-.308 1.643-1.044 3.17-1.97 4.22-.923 1.05-2.01 1.61-3.155 1.593-1.176-.017-2.24-.584-3.156-1.625-.918-1.04-1.64-2.537-1.97-4.188l-.093-.625zM23 19.998c.372.218 1.35.86 2.47 2.094l-3.032 2.093-.72.47.376.78.28.563H19.22c.52-.353 1.008-.795 1.436-1.28 1.1-1.25 1.84-2.89 2.25-4.657.034-.02.06-.043.094-.062zm-14.03.03c.038.024.083.042.124.064.428 1.745 1.165 3.363 2.25 4.593.45.51.973.95 1.53 1.313h-3.25l.282-.563.375-.78-.716-.47-3.032-2.093c1.06-1.168 2.023-1.812 2.44-2.063z"/></svg>