<svg xmlns="http://www.w3.org/2000/svg" viewBox="0 0 32 32"><path d="M5 6C3.355 6 2 7.355 2 9v14c0 1.645 1.355 3 3 3h22c1.645 0 3-1.355 3-3V9c0-1.645-1.355-3-3-3H5zm0 2h22c.565 0 1 .435 1 1v14c0 .565-.435 1-1 1H5c-.565 0-1-.435-1-1V9c0-.565.435-1 1-1zm11.5 3.438c-.474 0-.844.37-.844.843 0 .47.37.846.844.846.468 0 .844-.376.844-.844 0-.473-.377-.842-.844-.842zm-5.438.75l-1.374.218-.188 1.22-.5.093-.188 1.123H9.5v2.344c0 .61.15 1.022.47 1.28.265.215.647.313 1.186.313.416 0 .67-.078.844-.124v-1.25c-.097.026-.32.063-.47.063-.317 0-.467-.163-.467-.533v-2.094h.843l.188-1.22h-1.03l-.002-1.437zM6.907 13.53c-.546 0-1.018.142-1.343.408-.338.278-.5.7-.5 1.187 0 .883.53 1.244 1.406 1.563.564.2.75.34.75.562 0 .214-.17.344-.5.344-.41 0-1.09-.21-1.532-.47L5 18.344c.377.215 1.085.438 1.813.438.578 0 1.05-.114 1.375-.374.364-.286.562-.736.562-1.28 0-.904-.547-1.277-1.438-1.595-.474-.174-.75-.285-.75-.5 0-.18.14-.31.407-.31.485 0 .997.205 1.342.374l.187-1.22c-.274-.13-.82-.343-1.595-.343zm13.813 0c-.47 0-.9.217-1.282.626l-.063-.53h-1.438v6.937l1.625-.282V18.69c.247.078.492.094.72.094.402 0 .982-.1 1.437-.593.433-.475.654-1.19.654-2.157 0-.856-.145-1.52-.47-1.936-.285-.37-.68-.563-1.186-.563zm4.218 0c-1.37 0-2.22 1.034-2.22 2.658 0 .91.21 1.596.657 2.03.403.39 1.004.563 1.75.563.688 0 1.317-.137 1.72-.404l-.19-1.125c-.395.215-.854.345-1.374.345-.31 0-.53-.083-.685-.22-.17-.142-.248-.355-.282-.686h2.657c.008-.08.03-.447.03-.564 0-.805-.186-1.458-.53-1.906-.352-.456-.863-.69-1.532-.69zM15 13.564c-.455 0-.826.26-.97.687l-.092-.624H12.53v5.063h1.626v-3.283c.2-.247.485-.344.875-.344.086 0 .17.013.284.032v-1.5c-.113-.026-.215-.03-.313-.03zm.688.062v5.063h1.624v-5.064h-1.625zm9.218 1c.364 0 .568.348.594 1.063h-1.188c.046-.723.224-1.064.594-1.064zm-4.75.156c.41 0 .625.42.625 1.283.003.492-.07.896-.217 1.156-.13.247-.328.375-.562.375-.16 0-.307-.03-.437-.094v-2.405c.273-.286.504-.313.594-.313z"/></svg>