<svg xmlns="http://www.w3.org/2000/svg" viewBox="0 0 32 32"><path d="M4.156 8l1 1.53L9.313 16l-4.157 6.47-1 1.53h6.374l.314-.47 1.656-2.56 1.656 2.56.313.47h6.373l-1-1.53L15.687 16l4.157-6.47 1-1.53H14.47l-.314.47-1.656 2.56-1.656-2.56L10.53 8H4.157zm3.657 2H9.47l2.185 3.438.844 1.312.843-1.313L15.53 10h1.658l-3.532 5.47-.344.53.344.53 3.53 5.47H15.53l-2.185-3.438-.844-1.312-.843 1.313L9.47 22H7.81l3.532-5.47.344-.53-.344-.53L7.814 10zm17.156 9C23.34 19 22 20.343 22 21.97V22h2v-.03c0-.547.423-.97.97-.97h.06c.547 0 .97.423.97.97 0 .317-.143.6-.406.78l-2.125 1.47C22.55 24.847 22 25.89 22 27v1h6v-2h-3.47c.04-.032.023-.097.064-.125l2.125-1.47c.8-.552 1.28-1.46 1.28-2.436C28 20.34 26.655 19 25.03 19h-.06z"/></svg>