<svg xmlns="http://www.w3.org/2000/svg" viewBox="0 0 32 32"><path d="M15 4v2.03c-2.77.203-5 2.526-5 5.345 0 2.584 1.864 4.788 4.406 5.25l.594.125V24h-.625C12.505 24 11 22.494 11 20.625V19H9v1.625C9 23.575 11.426 26 14.375 26H15v2h2v-2h.625C20.573 26 23 23.574 23 20.625c0-2.584-1.863-4.788-4.406-5.25L17 15.062v-7.03c1.69.186 3 1.602 3 3.343V13h2v-1.625c0-2.82-2.23-5.142-5-5.344V4h-2zm0 4.03v6.658l-.25-.032c-1.604-.29-2.75-1.65-2.75-3.28 0-1.742 1.31-3.158 3-3.345zm2 9.095l1.25.22c1.605.29 2.75 1.65 2.75 3.28C21 22.495 19.493 24 17.625 24H17v-6.875z"/></svg>