<svg xmlns="http://www.w3.org/2000/svg" viewBox="0 0 32 32"><path d="M5 6C3.355 6 2 7.355 2 9v14c0 1.645 1.355 3 3 3h22c1.645 0 3-1.355 3-3V9c0-1.645-1.355-3-3-3H5zm0 2h22c.565 0 1 .435 1 1v14c0 .565-.435 1-1 1H5c-.565 0-1-.435-1-1V9c0-.565.435-1 1-1zm14.406 4.375c-1.926 0-2.937.95-2.937 2.156 0 2.183 2.56 1.88 2.56 3 0 .193-.16.627-1.22.627s-1.75-.375-1.75-.375l-.31 1.44s.655.405 1.97.405c1.31 0 3.154-1.008 3.154-2.47 0-1.756-2.563-1.872-2.563-2.655 0-.4.34-.72 1.25-.72.594 0 1.25.47 1.25.47l.314-1.53s-.87-.345-1.72-.345zm-8.218.125L9.5 17.438s-.084-.428-.125-.688c-.955-2.14-2.5-2.938-2.5-2.938l1.47 5.594h2l2.81-6.906H11.19zm2.687 0l-1.094 6.906h1.846L15.72 12.5h-1.845zm9.938 0l-3 6.906h1.812l.375-.968h2.313l.187.968h1.656L25.75 12.5h-1.938zm-18.97.03s3.597 1.105 4.438 3.814l-.623-3.125s-.275-.69-1-.69H4.844zM24.5 14.5l.53 2.594h-1.5l.97-2.594z"/></svg>